<svg width="248" height="150" viewBox="0 0 248 150" fill="none" xmlns="http://www.w3.org/2000/svg">
<g clip-path="url(#clip0_86_139)">
<g filter="url(#filter0_f_86_139)">
<ellipse cx="33.0461" cy="32.7293" rx="33.0461" ry="32.7293" transform="matrix(-1 0 0 1 144.291 29.5707)" fill="#001973"/>
</g>
<g filter="url(#filter1_f_86_139)">
<path d="M133.521 45.251C117.288 32.4516 98.4197 42.1914 85.7301 58.2855C73.0405 74.3795 76.3995 99.3063 92.6328 112.106C108.866 124.905 134.382 129.322 147.072 113.228C154.183 104.209 124.765 91.8368 122.489 81.3738C120.704 73.1666 140.657 50.8775 133.521 45.251Z" fill="#00AAB8"/>
</g>
<g filter="url(#filter2_f_86_139)">
<ellipse cx="32.7293" cy="31.0184" rx="32.7293" ry="31.0184" transform="matrix(-1 0 0 1 176.671 62.3151)" fill="#423FC3"/>
</g>
<g filter="url(#filter3_f_86_139)">
<ellipse cx="27.7266" cy="27.3453" rx="27.7266" ry="27.3453" transform="matrix(-0.97329 -0.229581 -0.229581 0.97329 172.489 48.5751)" fill="#00E0FF"/>
</g>
<g style="mix-blend-mode:overlay">
<path d="M165.118 120.235V101.326L160.655 104.07V99.1109L165.118 96.4331H169.713V120.235H165.118ZM183.634 95.9703C185.21 95.9703 186.62 96.3395 187.865 97.0778C189.122 97.8161 190.113 98.8464 190.841 100.169C191.568 101.48 191.932 103.001 191.932 104.731V111.64C191.932 113.513 191.568 115.133 190.841 116.5C190.113 117.855 189.089 118.902 187.766 119.64C186.444 120.368 184.89 120.731 183.105 120.731C181.948 120.731 180.846 120.561 179.799 120.219C178.763 119.866 177.805 119.288 176.923 118.483L180.13 115.277C180.526 115.673 180.984 115.982 181.502 116.202C182.031 116.423 182.565 116.533 183.105 116.533C183.965 116.533 184.708 116.335 185.336 115.938C185.976 115.53 186.466 115.007 186.808 114.368C187.16 113.717 187.337 113.029 187.337 112.301V108.764L188.097 109.591C187.425 110.285 186.637 110.819 185.733 111.194C184.83 111.558 183.898 111.739 182.94 111.739C181.441 111.739 180.119 111.403 178.973 110.731C177.838 110.059 176.945 109.139 176.295 107.971C175.656 106.803 175.336 105.469 175.336 103.971C175.336 102.472 175.716 101.122 176.477 99.9208C177.237 98.7087 178.245 97.75 179.502 97.0447C180.758 96.3285 182.135 95.9703 183.634 95.9703ZM183.634 100.268C182.951 100.268 182.323 100.433 181.75 100.764C181.188 101.094 180.736 101.541 180.394 102.103C180.064 102.665 179.898 103.287 179.898 103.971C179.898 104.654 180.064 105.282 180.394 105.855C180.725 106.417 181.171 106.869 181.733 107.21C182.295 107.541 182.918 107.706 183.601 107.706C184.284 107.706 184.907 107.541 185.469 107.21C186.042 106.869 186.494 106.417 186.824 105.855C187.166 105.282 187.337 104.654 187.337 103.971C187.337 103.309 187.171 102.698 186.841 102.136C186.51 101.574 186.064 101.122 185.502 100.78C184.94 100.439 184.317 100.268 183.634 100.268Z" fill="white"/>
</g>
<g style="mix-blend-mode:overlay">
<path d="M105.834 42.5457C104.394 43.3774 102.88 45.6661 102.702 50.668C102.652 51.801 102.156 52.8682 101.322 53.6375C100.489 54.4068 99.3858 54.8159 98.2523 54.7758C97.1189 54.7357 96.0472 54.2497 95.2703 53.4235C94.4933 52.5973 94.0741 51.4977 94.1038 50.3639C94.3217 44.2378 96.2605 38.1404 101.532 35.0945C106.821 32.0429 113.09 33.4311 118.516 36.322C119.524 36.8591 120.276 37.7742 120.608 38.866C120.941 39.9579 120.826 41.1371 120.289 42.1442C119.752 43.1513 118.837 43.9038 117.745 44.2362C116.653 44.5686 115.474 44.4536 114.467 43.9166C110.033 41.5476 107.28 41.7197 105.834 42.5457ZM128.899 49.9968C129.334 49.6367 129.836 49.3659 130.376 49.1999C130.916 49.0338 131.484 48.9758 132.046 49.029C132.609 49.0823 133.155 49.2458 133.654 49.5103C134.154 49.7748 134.596 50.135 134.956 50.5704C138.317 54.6473 141.329 58.999 143.962 63.5799C149.927 73.9162 153.604 84.505 154.596 93.3845C155.09 97.8184 154.941 102.04 153.908 105.66C152.858 109.302 150.828 112.6 147.421 114.568C143.296 116.948 138.53 116.616 134.176 115.027C129.805 113.432 125.302 110.421 121.012 106.503C120.182 105.731 119.69 104.662 119.644 103.529C119.598 102.396 120 101.291 120.764 100.454C121.529 99.6162 122.592 99.1143 123.725 99.0569C124.857 98.9995 125.966 99.3914 126.811 100.147C130.597 103.6 134.147 105.86 137.119 106.939C140.113 108.029 141.994 107.771 143.118 107.117C144.059 106.572 145.011 105.465 145.631 103.291C146.262 101.088 146.463 98.0708 146.044 94.3424C145.212 86.8912 142.029 77.4382 136.505 67.8819C134.114 63.724 131.38 59.7734 128.331 56.0713C127.971 55.636 127.7 55.1339 127.534 54.5939C127.368 54.0538 127.31 53.4864 127.363 52.9239C127.416 52.3614 127.58 51.8149 127.844 51.3156C128.109 50.8164 128.469 50.3741 128.904 50.014" fill="white"/>
<path d="M161.188 76.01C161.188 74.3466 159.96 71.8858 155.721 69.2415C155.242 68.942 154.826 68.5511 154.497 68.091C154.169 67.6309 153.935 67.1106 153.807 66.5598C153.68 66.0091 153.662 65.4387 153.755 64.8811C153.849 64.3236 154.051 63.7898 154.35 63.3104C154.955 62.3421 155.919 61.6536 157.032 61.3965C157.583 61.2692 158.153 61.2517 158.71 61.3448C159.268 61.438 159.802 61.64 160.281 61.9395C165.478 65.1918 169.792 69.9183 169.792 76.01C169.792 82.1132 165.455 86.8512 160.235 90.1035C159.268 90.6843 158.11 90.8615 157.013 90.5969C155.916 90.3324 154.967 89.6473 154.37 88.6894C153.773 87.7315 153.577 86.5774 153.823 85.476C154.07 84.3746 154.739 83.4141 155.687 82.8015C159.954 80.14 161.188 77.6735 161.188 76.01ZM143.193 92.2546C143.288 92.8116 143.272 93.3819 143.146 93.9327C143.02 94.4835 142.787 95.0042 142.46 95.4649C142.133 95.9257 141.719 96.3175 141.24 96.618C140.762 96.9185 140.229 97.1218 139.672 97.2163C134.46 98.0823 129.186 98.5121 123.903 98.5012C111.972 98.5012 100.959 96.396 92.7734 92.811C88.6836 91.0271 85.11 88.7843 82.4944 86.0768C79.8501 83.3579 78.0145 79.9392 78.0145 76.01C78.0145 71.2491 80.6875 67.2912 84.2382 64.3084C87.806 61.32 92.6702 58.928 98.2055 57.1728C99.2932 56.8274 100.474 56.9284 101.487 57.4533C101.989 57.7132 102.434 58.0694 102.798 58.5016C103.162 58.9338 103.438 59.4334 103.609 59.972C103.78 60.5106 103.843 61.0776 103.795 61.6406C103.747 62.2036 103.588 62.7517 103.328 63.2534C103.068 63.7552 102.712 64.2008 102.28 64.5649C101.848 64.929 101.348 65.2044 100.81 65.3754C95.934 66.9241 92.1941 68.8686 89.7735 70.9049C87.3299 72.947 86.6186 74.7079 86.6186 76.01C86.6186 77.0999 87.1062 78.4765 88.6779 80.0998C90.2725 81.7461 92.7849 83.4268 96.2208 84.9296C103.087 87.9353 112.867 89.897 123.903 89.897C128.979 89.897 133.809 89.4841 138.232 88.7326C138.789 88.638 139.359 88.6541 139.91 88.7799C140.461 88.9057 140.981 89.1388 141.442 89.4659C141.903 89.7929 142.295 90.2075 142.595 90.686C142.896 91.1645 143.099 91.6975 143.193 92.2546Z" fill="white"/>
<path d="M105.961 107.122C107.395 107.954 110.142 108.12 114.559 105.774C115.058 105.509 115.605 105.345 116.167 105.291C116.73 105.237 117.297 105.294 117.838 105.46C118.378 105.625 118.881 105.895 119.317 106.255C119.752 106.614 120.113 107.056 120.378 107.555C120.644 108.054 120.808 108.601 120.862 109.163C120.916 109.726 120.859 110.293 120.693 110.834C120.528 111.374 120.258 111.877 119.898 112.313C119.538 112.749 119.096 113.109 118.597 113.375C113.183 116.248 106.93 117.619 101.659 114.579C96.3701 111.522 94.4314 105.401 94.2306 99.2523C94.2097 98.1227 94.6342 97.0301 95.4122 96.2108C96.1901 95.3914 97.2592 94.911 98.3885 94.8733C99.5177 94.8356 100.616 95.2437 101.447 96.0094C102.278 96.7751 102.774 97.837 102.829 98.9655C103.001 103.985 104.515 106.291 105.961 107.122ZM100.89 83.4151C99.8208 83.0179 98.953 82.2122 98.4775 81.1752C98.0021 80.1383 97.9579 78.955 98.3548 77.8855C100.087 73.2106 102.353 68.3808 105.123 63.5855C111.089 53.2491 118.42 44.7712 125.613 39.471C129.203 36.8267 132.932 34.8478 136.586 33.9357C140.263 33.018 144.14 33.1269 147.542 35.0944C151.672 37.4749 153.76 41.7655 154.563 46.3371C155.371 50.9202 155.01 56.3236 153.76 61.9966C153.658 62.5672 153.443 63.1116 153.126 63.5969C152.809 64.0822 152.398 64.4986 151.916 64.8209C151.434 65.1432 150.893 65.3649 150.323 65.4726C149.754 65.5803 149.168 65.5718 148.602 65.4477C148.036 65.3236 147.501 65.0864 147.029 64.7502C146.557 64.4141 146.157 63.9861 145.855 63.4918C145.552 62.9975 145.352 62.4472 145.268 61.8738C145.183 61.3005 145.215 60.7159 145.362 60.1553C146.458 55.1534 146.641 50.9432 146.09 47.8227C145.54 44.6909 144.37 43.1937 143.245 42.5456C142.305 42.0006 140.865 41.731 138.674 42.2817C136.448 42.8381 133.741 44.1746 130.718 46.4002C124.683 50.8399 118.087 58.3312 112.575 67.8875C110.162 72.038 108.103 76.3841 106.42 80.8797C106.023 81.9491 105.217 82.8169 104.18 83.2924C103.143 83.7678 101.96 83.8119 100.89 83.4151Z" fill="white"/>
<path d="M132.278 75.2068C132.278 77.2758 131.456 79.26 129.993 80.723C128.53 82.186 126.546 83.0079 124.477 83.0079C122.408 83.0079 120.423 82.186 118.96 80.723C117.497 79.26 116.676 77.2758 116.676 75.2068C116.676 73.1378 117.497 71.1536 118.96 69.6906C120.423 68.2277 122.408 67.4058 124.477 67.4058C126.546 67.4058 128.53 68.2277 129.993 69.6906C131.456 71.1536 132.278 73.1378 132.278 75.2068Z" fill="white"/>
</g>
</g>
<defs>
<filter id="filter0_f_86_139" x="43.3463" y="-5.28137" width="135.796" height="135.163" filterUnits="userSpaceOnUse" color-interpolation-filters="sRGB">
<feFlood flood-opacity="0" result="BackgroundImageFix"/>
<feBlend mode="normal" in="SourceGraphic" in2="BackgroundImageFix" result="shape"/>
<feGaussianBlur stdDeviation="17.426" result="effect1_foregroundBlur_86_139"/>
</filter>
<filter id="filter1_f_86_139" x="43.1441" y="4.50513" width="139.886" height="153.947" filterUnits="userSpaceOnUse" color-interpolation-filters="sRGB">
<feFlood flood-opacity="0" result="BackgroundImageFix"/>
<feBlend mode="normal" in="SourceGraphic" in2="BackgroundImageFix" result="shape"/>
<feGaussianBlur stdDeviation="17.426" result="effect1_foregroundBlur_86_139"/>
</filter>
<filter id="filter2_f_86_139" x="76.3607" y="27.463" width="135.163" height="131.741" filterUnits="userSpaceOnUse" color-interpolation-filters="sRGB">
<feFlood flood-opacity="0" result="BackgroundImageFix"/>
<feBlend mode="normal" in="SourceGraphic" in2="BackgroundImageFix" result="shape"/>
<feGaussianBlur stdDeviation="17.426" result="effect1_foregroundBlur_86_139"/>
</filter>
<filter id="filter3_f_86_139" x="70.4048" y="0.345215" width="137.641" height="136.959" filterUnits="userSpaceOnUse" color-interpolation-filters="sRGB">
<feFlood flood-opacity="0" result="BackgroundImageFix"/>
<feBlend mode="normal" in="SourceGraphic" in2="BackgroundImageFix" result="shape"/>
<feGaussianBlur stdDeviation="20.5537" result="effect1_foregroundBlur_86_139"/>
</filter>
<clipPath id="clip0_86_139">
<rect width="247.806" height="149.672" fill="white"/>
</clipPath>
</defs>
</svg>
