<svg width="248" height="150" viewBox="0 0 248 150" fill="none" xmlns="http://www.w3.org/2000/svg">
<g filter="url(#filter0_f_86_136)">
<path d="M118.014 77.0828C100.636 69.4134 81.2923 73.7388 90.8256 54.6191C100.359 35.4995 122.174 26.2173 139.552 33.8867C156.93 41.5561 163.289 63.2729 153.756 82.3925C144.222 101.512 135.392 84.7522 118.014 77.0828Z" fill="#3F00B9"/>
</g>
<g filter="url(#filter1_f_86_136)">
<ellipse cx="108.864" cy="77.722" rx="31.847" ry="29.9621" fill="#FF8993"/>
</g>
<g filter="url(#filter2_f_86_136)">
<path d="M154.449 98.0314C161.381 83.6893 147.651 63.7847 123.782 53.5732C99.9133 43.3617 122.77 67.1711 115.838 81.5131C108.906 95.8552 74.81 95.2989 98.6788 105.51C122.548 115.722 147.517 112.373 154.449 98.0314Z" fill="#E607B6"/>
</g>
<g style="mix-blend-mode:overlay">
<path d="M124.017 40.8384C117.041 40.8384 111.044 42.7218 106.339 46.7539C101.661 50.7657 98.6075 56.5928 96.9077 63.8615C96.7272 64.6313 96.8208 65.44 97.1722 66.1483C97.5236 66.8566 98.111 67.4203 98.8331 67.7423C99.5553 68.0643 100.367 68.1246 101.129 67.9127C101.891 67.7008 102.555 67.23 103.007 66.5813C105.155 63.5079 107.304 61.6653 109.371 60.7133C111.37 59.7954 113.526 59.6118 116.001 60.2714C118.489 60.9377 120.42 62.896 123.446 66.1869L123.548 66.2957C125.833 68.7775 128.614 71.8033 132.421 74.1559C136.379 76.597 141.295 78.2356 147.816 78.2356C154.792 78.2356 160.789 76.3522 165.494 72.3201C170.172 68.3084 173.232 62.4812 174.925 55.2125C175.106 54.4427 175.012 53.634 174.661 52.9257C174.309 52.2174 173.722 51.6538 173 51.3317C172.278 51.0097 171.466 50.9495 170.704 51.1614C169.942 51.3733 169.278 51.8441 168.826 52.4927C166.677 55.5661 164.529 57.4088 162.462 58.3607C160.463 59.2786 158.307 59.4622 155.832 58.8027C153.344 58.1363 151.412 56.1781 148.387 52.8871L148.285 52.7783C146 50.2965 143.219 47.2707 139.411 44.9181C135.454 42.4771 130.538 40.8384 124.017 40.8384ZM100.219 71.4361C93.2427 71.4361 87.2456 73.3196 82.5403 77.3517C77.8623 81.3634 74.8093 87.1906 73.1094 94.4593C72.929 95.2291 73.0225 96.0377 73.374 96.746C73.7254 97.4543 74.3127 98.018 75.0348 98.34C75.757 98.6621 76.5688 98.7223 77.3306 98.5104C78.0923 98.2985 78.7564 97.8277 79.2086 97.1791C81.3572 94.1057 83.5059 92.263 85.5729 91.3111C87.572 90.3932 89.7274 90.2096 92.2024 90.8691C94.691 91.5355 96.6221 93.4937 99.6479 96.7847L99.7499 96.8935C102.034 99.3753 104.815 102.401 108.623 104.754C112.581 107.195 117.497 108.833 124.017 108.833C130.994 108.833 136.991 106.95 141.696 102.918C146.374 98.9061 149.434 93.079 151.127 85.8103C151.307 85.0405 151.214 84.2318 150.862 83.5235C150.511 82.8152 149.924 82.2515 149.201 81.9295C148.479 81.6075 147.668 81.5472 146.906 81.7591C146.144 81.971 145.48 82.4418 145.028 83.0905C142.879 86.1639 140.73 88.0065 138.663 88.9585C136.664 89.8764 134.509 90.06 132.034 89.4004C129.545 88.7341 127.614 86.7758 124.588 83.4849L124.486 83.3761C122.209 80.8942 119.421 77.8685 115.613 75.5158C111.656 73.068 106.74 71.4361 100.219 71.4361Z" fill="white"/>
</g>
<defs>
<filter id="filter0_f_86_136" x="58.7516" y="1.64303" width="128.987" height="119.129" filterUnits="userSpaceOnUse" color-interpolation-filters="sRGB">
<feFlood flood-opacity="0" result="BackgroundImageFix"/>
<feBlend mode="normal" in="SourceGraphic" in2="BackgroundImageFix" result="shape"/>
<feGaussianBlur stdDeviation="14.7762" result="effect1_foregroundBlur_86_136"/>
</filter>
<filter id="filter1_f_86_136" x="47.4648" y="18.2074" width="122.799" height="119.029" filterUnits="userSpaceOnUse" color-interpolation-filters="sRGB">
<feFlood flood-opacity="0" result="BackgroundImageFix"/>
<feBlend mode="normal" in="SourceGraphic" in2="BackgroundImageFix" result="shape"/>
<feGaussianBlur stdDeviation="14.7762" result="effect1_foregroundBlur_86_136"/>
</filter>
<filter id="filter2_f_86_136" x="60.7622" y="21.5486" width="125.036" height="119.427" filterUnits="userSpaceOnUse" color-interpolation-filters="sRGB">
<feFlood flood-opacity="0" result="BackgroundImageFix"/>
<feBlend mode="normal" in="SourceGraphic" in2="BackgroundImageFix" result="shape"/>
<feGaussianBlur stdDeviation="14.7762" result="effect1_foregroundBlur_86_136"/>
</filter>
</defs>
</svg>
